PathFileType	4	(X/Y/Z)	motion.trc
DataRate	CameraRate	NumFrames	NumMarkers	Units	OrigDataRate	OrigDataStartFrame	OrigNumFrames
25	25	35	9	mm	25	167	249
Frame#	Time	mPelvis	mHipR	mHipL	mKneeR	mKneeL	mAnkleR	mAnkleL	mToesR	mToesL
X1 Y1 Z1 X2 Y2 Z2 X3 Y3 Z3 X4 Y4 Z4 X5 Y5 Z5 X6 Y6 Z6 X7 Y7 Z7 X8 Y8 Z8 X9 Y9 Z9
167	6.162000	-238.782987	0.469735	2906.783104	-155.218139	-86.606696	2904.868364	-314.828783	-82.039513	2888.774157	-62.300242	-552.330434	2960.993290	-341.519356	-603.046417	2951.523304	-30.815277	-929.162621	3058.094978	-362.373888	-993.299127	2990.075588	-21.151429	-992.538035	3013.230085	-395.954162	-1065.482497	2973.992348	
168	6.193000	-254.384816	-1.661215	2904.241562	-172.429010	-86.573280	2903.018475	-327.442706	-83.224267	2886.009693	-69.625728	-550.735176	2952.660084	-349.946290	-597.559333	2952.777863	-30.568458	-927.799463	3052.788973	-363.819599	-991.041660	2989.361763	-20.292759	-991.580784	3009.052277	-396.963090	-1063.381910	2974.193335	
169	6.224000	-270.748645	-1.916941	2902.010918	-191.804230	-83.548456	2901.314020	-340.667933	-82.179457	2883.852482	-76.837204	-548.749208	2944.216728	-359.133452	-590.703189	2953.705549	-29.800666	-926.608801	3045.219660	-365.463376	-988.202393	2988.502741	-17.885119	-990.002811	3000.948668	-398.193657	-1060.709357	2974.253654	
170	6.255000	-286.699206	-4.875422	2900.008440	-209.148869	-83.755180	2899.908781	-353.429496	-83.590679	2881.927490	-83.749078	-546.552122	2935.726166	-368.133992	-584.309876	2954.516411	-28.119095	-923.468292	3031.298399	-367.264837	-984.935164	2987.593651	-15.876405	-984.317303	2981.210709	-399.568468	-1057.645559	2974.228859	
171	6.302000	-303.286999	-12.511878	2898.708344	-226.210251	-88.054657	2899.859428	-367.165089	-88.882983	2880.819321	-90.125471	-544.281900	2926.948786	-375.880361	-580.882668	2955.677986	-25.916068	-919.987857	3016.544580	-369.210869	-981.281281	2986.637831	-11.603311	-980.657279	2968.806267	-401.074618	-1054.274559	2974.130154	
172	6.333000	-318.353027	-20.020105	2897.694349	-241.586685	-92.334211	2900.020599	-379.859596	-94.325423	2880.039215	-96.105546	-541.727424	2918.081760	-383.169085	-577.796757	2956.719875	-22.192242	-912.619829	2997.923613	-371.449560	-977.077544	2985.528469	-4.262020	-973.577261	2950.370312	-402.656436	-1050.695539	2973.958492	
173	6.364000	-332.031190	-27.197750	2896.871090	-255.468339	-96.496589	2900.268555	-391.692996	-99.755883	2879.469872	-101.508096	-538.880110	2909.077406	-390.114486	-574.951708	2957.628489	-17.898858	-904.217124	2978.473902	-373.753875	-972.684741	2984.405518	4.726875	-964.719534	2929.291248	-404.295951	-1046.959519	2973.730564	
174	6.396000	-344.297379	-33.549149	2896.152020	-268.073559	-99.529937	2900.387287	-401.978076	-104.385361	2878.834009	-106.262580	-535.679996	2900.041580	-396.726817	-572.032869	2958.385706	-12.484708	-893.681467	2956.923008	-376.075804	-968.217194	2983.275890	15.033448	-954.323530	2907.067776	-405.974776	-1043.027163	2973.472595	
175	6.427000	-355.400115	-39.333154	2895.513773	-279.681087	-102.237806	2900.451422	-411.181867	-108.517766	2878.275871	-110.438824	-531.743050	2890.827417	-402.967066	-569.162726	2958.982229	-5.876598	-881.785870	2934.157610	-378.390431	-963.744938	2982.147694	26.855625	-941.482246	2883.219242	-407.688797	-1039.187431	2973.094940	
176	6.442000	-365.605712	-44.288106	2894.904613	-290.507257	-104.528196	2900.516748	-419.535786	-111.988924	2877.737284	-114.016131	-527.204216	2881.650686	-408.892363	-566.112041	2959.399462	1.610029	-869.398773	2911.015987	-380.686969	-959.396958	2981.026649	39.903529	-928.130448	2858.119249	-409.380078	-1035.749555	2972.681999	
177	6.489000	-374.926865	-48.053801	2894.339800	-300.170630	-106.409594	2900.540590	-427.511960	-114.863224	2877.209902	-116.991490	-522.080123	2872.468472	-414.660275	-562.609196	2959.526777	9.501770	-856.607497	2888.461828	-383.004844	-955.063879	2979.904413	52.858818	-914.928377	2834.345579	-410.296977	-1028.402686	2967.889309	
178	6.536000	-383.428365	-51.234115	2893.814802	-308.853328	-107.998021	2900.536537	-434.983492	-117.325924	2876.696348	-119.407579	-516.686678	2863.535881	-420.117527	-559.063911	2959.406137	17.489135	-844.346881	2867.095232	-385.235161	-950.860739	2978.807926	65.371774	-902.190089	2812.189579	-410.918683	-1021.016479	2962.845564	
179	6.567000	-391.257107	-53.643294	2893.327951	-316.646725	-109.103821	2900.499105	-441.886485	-119.304210	2876.190901	-121.363319	-511.083603	2854.941845	-425.247639	-555.578291	2959.134340	25.620071	-833.126903	2847.414255	-387.369573	-946.824491	2977.755785	77.242553	-890.270233	2791.871786	-412.271202	-1017.127633	2961.436749	
180	6.614000	-398.523092	-55.469193	2892.909050	-323.681802	-109.952174	2900.464773	-448.324084	-120.915622	2875.724077	-122.920468	-505.524635	2846.812725	-429.939210	-552.364767	2958.773851	33.097651	-822.703958	2829.477787	-389.359057	-943.282664	2976.777554	88.100210	-879.392684	2773.658991	-413.575590	-1013.610482	2960.194349	
181	6.630000	-405.282050	-56.658972	2892.512560	-330.063045	-110.524818	2900.418282	-454.378128	-122.146294	2875.264645	-124.163330	-500.128448	2839.206457	-434.250683	-549.320579	2958.342552	39.888196	-813.241661	2813.384771	-391.257852	-939.894080	2975.822449	97.816117	-869.639099	2757.495165	-414.865345	-1010.360837	2959.074736	
182	6.676000	-411.502808	-57.367910	2892.137051	-335.830808	-110.900111	2900.358200	-460.037351	-123.077206	2874.805927	-125.175983	-494.967401	2832.150698	-438.204706	-546.400487	2957.809687	45.990452	-804.687679	2799.005270	-393.036902	-936.703026	2974.920988	106.433995	-860.936582	2743.190527	-416.152805	-1007.397294	2958.118200	
183	6.692000	-417.197108	-57.690002	2891.787767	-341.037571	-111.094870	2900.284529	-465.279132	-123.774737	2874.368429	-125.992641	-490.111500	2825.636625	-441.829771	-543.623567	2957.202673	51.374041	-797.134578	2786.238432	-394.701123	-933.720827	2974.072695	114.055648	-853.273571	2730.551481	-417.389035	-1004.671574	2957.286596	
184	6.723000	-422.406107	-57.578027	2891.424417	-345.707744	-111.081161	2900.175810	-470.138580	-124.237739	2873.933315	-126.696020	-485.748857	2819.656849	-445.134550	-541.011095	2956.555843	55.700522	-790.474236	2774.837255	-396.254659	-930.871964	2973.258734	120.537229	-846.660197	2719.377518	-418.570518	-1002.165914	2956.552029	
185	6.739000	-427.129477	-57.136010	2891.054630	-349.867284	-110.883139	2900.012970	-474.607885	-124.524735	2873.515368	-127.440169	-481.598705	2814.141035	-448.147565	-538.567245	2955.862522	59.480380	-784.775853	2764.768124	-397.707075	-928.154647	2972.454548	126.168013	-840.994239	2709.444523	-418.674231	-997.303724	2952.656507	
186	6.801000	-431.367904	-56.411721	2890.688896	-353.528559	-110.518903	2899.823904	-478.686333	-124.673530	2873.108864	-128.114164	-478.236884	2809.202671	-450.892836	-536.273718	2955.078363	62.809676	-779.811800	2755.853891	-399.052680	-925.623238	2971.689224	131.141543	-836.013079	2700.586796	-418.658197	-992.545187	2948.632240	
187	6.832000	-435.142219	-55.429488	2890.310764	-356.689185	-109.994337	2899.588346	-482.402802	-124.696843	2872.704506	-128.718585	-475.260228	2804.744720	-453.391463	-534.130037	2954.260826	65.694854	-775.455594	2747.862101	-400.300115	-923.265874	2970.966339	135.563195	-831.588686	2692.615747	-418.568045	-987.936914	2944.566488	
188	6.864000	-438.459694	-54.191288	2889.863014	-359.333932	-109.283842	2899.245024	-485.776573	-124.616936	2872.290611	-129.275009	-472.684771	2800.739527	-455.660313	-532.123864	2953.393459	68.156153	-771.676302	2740.646362	-401.447117	-921.097755	2970.287561	139.403746	-827.802539	2685.445070	-418.401748	-983.565092	2940.537691	
189	6.895000	-441.326082	-52.722313	2889.346838	-361.485630	-108.400129	2898.822546	-488.815606	-124.436870	2871.839762	-129.821122	-470.405579	2797.103643	-457.702339	-530.263424	2952.464342	70.095100	-768.638194	2734.223843	-402.504861	-919.091105	2969.649076	142.469645	-824.914813	2679.101706	-418.950856	-980.994880	2938.938379	
190	6.910000	-443.767458	-51.059995	2888.706207	-363.156497	-107.367411	2898.257256	-491.551340	-124.161296	2871.324301	-130.323634	-468.395710	2793.786287	-459.536254	-528.543293	2951.476336	71.401268	-766.463518	2728.632450	-403.427213	-917.310238	2969.117641	144.750819	-822.934210	2673.633337	-418.713003	-977.380753	2935.557604	
191	6.942000	-445.760638	-49.228486	2887.914658	-364.305645	-106.176451	2897.493124	-493.977875	-123.791426	2870.721102	-130.770579	-466.624171	2790.747404	-461.174428	-526.959479	2950.469494	72.157085	-765.052915	2723.828793	-404.252559	-915.715814	2968.647242	146.260098	-821.827888	2668.991089	-418.407410	-974.066019	2932.353973	
192	6.973000	-447.314918	-47.235541	2886.988163	-364.939451	-104.852647	2896.543980	-496.094227	-123.322666	2869.996309	-131.163150	-465.070248	2787.961006	-462.633371	-525.508106	2949.464083	72.437569	-764.470696	2719.746351	-404.997736	-914.267242	2968.221426	147.110224	-821.606815	2665.064812	-418.044358	-970.979631	2929.284811	
193	7.035000	-448.404372	-45.077089	2885.916710	-365.037620	-103.386022	2895.403385	-497.889668	-122.748695	2869.171619	-131.508097	-463.706642	2785.413265	-463.918030	-524.174213	2948.414087	72.201490	-764.695883	2716.325998	-405.668646	-912.957430	2967.836857	147.317663	-822.192013	2661.798954	-417.654544	-968.136549	2926.368237	
194	7.051000	-449.014217	-42.756677	2884.651184	-364.593536	-101.788424	2894.020081	-499.343485	-122.046717	2868.186474	-131.784230	-462.591201	2783.046007	-465.033144	-522.998333	2947.256565	71.467705	-766.394377	2713.728666	-406.275690	-911.766410	2967.486858	147.013932	-823.581815	2658.813238	-417.233020	-965.504169	2923.588991	
195	7.082000	-449.058622	-40.293373	2883.141279	-363.528848	-100.089788	2892.374992	-500.352979	-121.209621	2866.922140	-131.939918	-461.798310	2780.823469	-465.926260	-521.986425	2945.972681	70.798665	-768.379152	2711.235523	-406.823814	-910.686374	2967.166901	146.552190	-825.563192	2656.061649	-416.753978	-963.074684	2920.933962	
196	7.129000	-448.557466	-37.691761	2881.378174	-361.840814	-98.299593	2890.415192	-500.981987	-120.254621	2865.447998	-131.459266	-462.542742	2778.485775	-466.563404	-521.087945	2944.515467	69.949985	-770.511866	2708.950281	-407.319367	-909.705520	2966.874361	145.756111	-827.822506	2653.548717	-416.266024	-960.842133	2918.411016	
197	7.144000	-447.398126	-35.011347	2879.282475	-359.362036	-96.488021	2888.015509	-501.104176	-119.209759	2863.655090	-130.993560	-462.971061	2776.342154	-466.932148	-520.325541	2942.936897	69.016293	-773.089707	2706.996918	-407.768458	-908.814609	2966.607332	144.788325	-830.433249	2651.276588	-415.762305	-958.791912	2916.022778	
198	7.191000	-445.452392	-32.314591	2876.782417	-356.010854	-94.729923	2885.079861	-500.607073	-118.098311	2861.492872	-130.397603	-463.473529	2774.321795	-467.037827	-519.667864	2941.223383	68.114713	-775.698304	2705.035686	-408.174962	-908.005834	2966.364384	143.733799	-833.374560	2649.163723	-415.255904	-956.916451	2913.774252	
199	7.222000	-442.718297	-29.621556	2873.871803	-351.843208	-93.036629	2881.695747	-499.389321	-116.953634	2858.880758	-129.733890	-464.068502	2772.425175	-466.798037	-519.289196	2939.340115	67.339785	-778.321803	2703.145504	-408.543319	-907.273471	2966.143847	142.648920	-836.492717	2647.104025	-414.738178	-955.215931	2911.662817	
200	7.269000	-439.100504	-26.947888	2870.537758	-346.777141	-91.452092	2877.840281	-497.425616	-115.750432	2855.821133	-126.959801	-468.054444	2769.817352	-466.308773	-518.999517	2937.334538	66.789806	-782.004774	2701.276779	-408.874601	-906.607985	2965.940714	141.755387	-840.411067	2644.896030	-414.210528	-953.670382	2909.661770	
201	7.300000	-434.448421	-24.253614	2866.682053	-340.740442	-89.967914	2873.461485	-494.608730	-114.485361	2852.275372	-125.096783	-469.462067	2767.670393	-465.305269	-518.919051	2935.036421	66.480465	-785.298526	2699.214458	-409.172148	-906.004429	2965.753794	140.911996	-844.569206	2642.676830	-413.695902	-952.278733	2907.781363	
